# xmcd
#
# Track frame offsets:
#	150
#	19041
#	39775
#	58687
#	76646
#	93375
#	114709
#	129043
#	145383
#	162418
#	184410
#	198159
#	215075
#	232135
#
# Disc length: 3260 seconds
#
# Revision: 1
# Processed by: cddbd v1.5.2PL0 Copyright (c) Steve Scherf et al.
# Submitted via: audiograbber 1.83.01
#
DISCID=bc0cba0e
DTITLE=Rosemary - Popularidade
DYEAR=1900
DGENRE=Blues
TTITLE0=Escuta
TTITLE1=Separação
TTITLE2=A Melhor Mentira
TTITLE3=Falando as Paredes
TTITLE4=Na Chuva Pra Molhar
TTITLE5=Mulher de Caminhoneiro
TTITLE6=Jóia
TTITLE7=Homem de Vitrine
TTITLE8=Vícios do prazer
TTITLE9=Me Ajuda a Te Esquecer
TTITLE10=Horas Perdidas
TTITLE11=Na Trilha dos Amores
TTITLE12=Se Eu For Embora é Pro Nosso Bem
TTITLE13=Poema
EXTD=
EXTT0=
EXTT1=
EXTT2=
EXTT3=
EXTT4=
EXTT5=
EXTT6=
EXTT7=
EXTT8=
EXTT9=
EXTT10=
EXTT11=
EXTT12=
EXTT13=
PLAYORDER=
